<svg id="svg" version="1.1" xmlns="http://www.w3.org/2000/svg" xmlns:xlink="http://www.w3.org/1999/xlink" width="400" height="400" viewBox="0, 0, 400,400"><g id="svgg"><path id="path0" d="M224.798 157.178 L 223.730 158.301 224.854 157.233 C 225.897 156.241,226.066 156.055,225.921 156.055 C 225.891 156.055,225.385 156.560,224.798 157.178 M279.872 176.514 L 279.199 177.246 279.932 176.573 C 280.613 175.947,280.754 175.781,280.605 175.781 C 280.572 175.781,280.242 176.111,279.872 176.514 M275.440 191.113 C 275.442 191.543,275.482 191.696,275.529 191.453 C 275.575 191.210,275.574 190.858,275.525 190.672 C 275.476 190.485,275.438 190.684,275.440 191.113 M147.051 195.486 C 147.599 196.118,148.047 196.729,148.047 196.843 C 148.047 196.958,148.571 197.642,149.211 198.363 C 149.850 199.083,150.332 199.742,150.280 199.825 C 150.229 199.908,150.474 200.307,150.826 200.710 C 151.177 201.114,151.355 201.377,151.221 201.296 C 150.728 200.999,151.001 201.436,151.964 202.490 C 152.506 203.084,152.919 203.668,152.881 203.787 C 152.811 204.003,153.588 204.871,153.861 204.882 C 153.940 204.885,154.004 205.039,154.004 205.224 C 154.004 205.410,154.165 205.592,154.361 205.630 C 154.705 205.696,154.705 205.711,154.360 206.101 C 154.164 206.322,154.575 206.124,155.273 205.660 C 156.719 204.699,157.078 204.414,156.625 204.586 C 156.346 204.692,146.716 195.108,146.517 194.526 C 146.481 194.422,146.363 194.336,146.253 194.336 C 146.144 194.336,146.503 194.853,147.051 195.486 M197.656 195.764 C 197.656 195.798,197.942 196.083,198.291 196.399 L 198.926 196.973 198.352 196.338 C 197.817 195.746,197.656 195.613,197.656 195.764 M204.688 203.186 C 204.688 203.220,204.973 203.505,205.322 203.821 L 205.957 204.395 205.383 203.760 C 204.849 203.168,204.688 203.035,204.688 203.186 M165.430 205.762 C 165.794 206.138,166.136 206.445,166.190 206.445 C 166.244 206.445,165.989 206.138,165.625 205.762 C 165.261 205.386,164.918 205.078,164.865 205.078 C 164.811 205.078,165.065 205.386,165.430 205.762 M208.390 207.080 C 209.200 207.942,209.375 208.097,209.375 207.951 C 209.375 207.919,208.958 207.502,208.447 207.023 L 207.520 206.152 208.390 207.080 M212.109 211.035 C 212.474 211.411,212.816 211.719,212.870 211.719 C 212.923 211.719,212.669 211.411,212.305 211.035 C 211.940 210.659,211.598 210.352,211.544 210.352 C 211.491 210.352,211.745 210.659,212.109 211.035 M170.801 211.328 C 171.220 211.758,171.608 212.109,171.661 212.109 C 171.715 212.109,171.416 211.758,170.996 211.328 C 170.577 210.898,170.189 210.547,170.136 210.547 C 170.082 210.547,170.381 210.898,170.801 211.328 M99.508 214.111 L 97.559 216.113 99.561 214.164 C 100.662 213.092,101.563 212.191,101.563 212.162 C 101.563 212.021,101.319 212.252,99.508 214.111 M215.617 214.697 C 216.426 215.560,216.602 215.715,216.602 215.568 C 216.602 215.537,216.184 215.119,215.674 214.640 L 214.746 213.770 215.617 214.697 M176.074 216.797 C 176.494 217.227,176.881 217.578,176.935 217.578 C 176.988 217.578,176.689 217.227,176.270 216.797 C 175.850 216.367,175.463 216.016,175.409 216.016 C 175.355 216.016,175.655 216.367,176.074 216.797 M218.164 217.444 C 218.164 217.478,218.450 217.763,218.799 218.079 L 219.434 218.652 218.860 218.018 C 218.325 217.426,218.164 217.293,218.164 217.444 M271.496 220.910 C 271.360 221.669,271.288 222.330,271.335 222.377 C 271.383 222.424,271.532 221.842,271.668 221.082 C 271.804 220.323,271.876 219.663,271.829 219.615 C 271.781 219.568,271.632 220.150,271.496 220.910 M182.129 223.047 C 182.875 223.799,183.530 224.414,183.583 224.414 C 183.637 224.414,183.070 223.799,182.324 223.047 C 181.578 222.295,180.924 221.680,180.870 221.680 C 180.816 221.680,181.383 222.295,182.129 223.047 M129.482 224.951 L 128.809 225.684 129.541 225.011 C 130.223 224.384,130.363 224.219,130.214 224.219 C 130.181 224.219,129.852 224.548,129.482 224.951 M188.082 229.150 C 189.208 230.305,190.153 231.250,190.182 231.250 C 190.323 231.250,190.085 231.000,188.135 229.098 L 186.035 227.051 188.082 229.150 M229.004 228.906 C 229.423 229.336,229.811 229.688,229.864 229.688 C 229.918 229.688,229.619 229.336,229.199 228.906 C 228.780 228.477,228.392 228.125,228.339 228.125 C 228.285 228.125,228.584 228.477,229.004 228.906 M290.039 231.641 C 289.878 231.745,289.087 231.834,288.281 231.839 C 287.076 231.847,286.678 231.933,286.035 232.329 L 285.254 232.810 277.201 232.811 L 269.148 232.813 269.021 233.319 C 268.924 233.704,268.850 233.763,268.712 233.563 C 268.594 233.392,268.573 233.538,268.652 233.984 C 268.748 234.523,268.726 234.606,268.550 234.375 C 268.365 234.133,268.342 234.159,268.422 234.521 C 268.475 234.763,268.428 234.961,268.318 234.961 C 268.208 234.961,268.165 235.137,268.221 235.352 C 268.277 235.567,268.262 235.705,268.188 235.659 C 268.114 235.614,267.889 236.163,267.688 236.880 C 266.222 242.112,262.950 251.357,260.799 256.348 C 260.104 257.959,259.398 259.606,259.231 260.008 L 258.926 260.739 257.637 259.624 C 255.225 257.539,251.306 254.011,248.257 251.180 C 246.584 249.626,245.382 248.550,245.587 248.787 L 245.959 249.219 242.950 249.219 C 240.288 249.220,239.868 249.265,239.302 249.610 C 238.801 249.916,238.318 250.000,237.067 250.000 C 235.601 250.000,235.426 250.043,234.923 250.525 C 234.622 250.813,234.375 250.945,234.375 250.818 C 234.375 250.458,230.193 250.502,229.632 250.867 C 229.222 251.134,228.972 250.985,224.805 247.970 C 222.388 246.222,218.081 243.113,215.234 241.062 C 212.388 239.011,209.686 237.053,209.230 236.712 L 208.402 236.090 202.883 236.220 C 198.442 236.324,197.218 236.412,196.620 236.666 L 195.876 236.983 193.612 234.751 C 191.450 232.621,214.231 256.321,231.830 274.512 C 244.163 287.260,243.078 286.071,242.756 286.484 C 242.605 286.679,242.732 286.569,243.039 286.241 C 243.407 285.848,243.527 285.784,243.391 286.052 C 243.277 286.276,242.783 286.788,242.293 287.190 C 241.803 287.592,241.446 287.992,241.500 288.080 C 241.555 288.168,241.467 288.291,241.306 288.353 C 241.144 288.415,241.035 288.578,241.063 288.715 C 241.090 288.853,241.008 288.944,240.880 288.920 C 240.665 288.878,239.747 289.969,239.746 290.267 C 239.746 290.339,239.666 290.470,239.568 290.560 C 239.463 290.656,239.455 290.603,239.548 290.430 C 239.742 290.069,239.912 289.895,236.742 293.304 C 217.413 314.089,191.459 324.562,163.477 322.868 C 146.782 321.857,133.475 317.311,123.633 309.256 C 122.860 308.623,122.141 308.130,122.036 308.159 C 121.932 308.189,121.892 308.139,121.948 308.048 C 122.004 307.957,121.373 307.279,120.546 306.540 C 119.719 305.802,119.263 305.456,119.531 305.773 L 120.020 306.348 119.488 305.880 C 119.196 305.622,119.000 305.342,119.053 305.257 C 119.106 305.172,118.650 304.547,118.041 303.869 C 117.096 302.819,115.952 301.357,114.395 299.214 C 114.202 298.948,114.106 298.862,114.181 299.023 C 114.257 299.185,114.700 299.859,115.167 300.523 C 115.634 301.187,116.016 301.778,116.016 301.837 C 116.016 302.189,114.713 302.539,113.399 302.539 C 111.942 302.539,110.418 303.148,109.157 304.233 C 108.917 304.440,108.270 304.492,106.423 304.450 L 104.004 304.395 102.698 302.246 C 93.058 286.388,93.992 265.974,105.251 246.406 C 105.801 245.452,106.250 244.643,106.250 244.610 C 106.250 244.576,106.470 244.225,106.738 243.829 C 107.424 242.819,107.372 242.723,106.201 242.839 C 104.234 243.034,103.217 243.284,102.344 243.787 C 101.499 244.274,101.316 244.297,97.595 244.390 C 93.996 244.479,93.695 244.515,93.286 244.899 C 92.945 245.219,92.597 245.313,91.747 245.313 C 91.143 245.313,90.594 245.400,90.527 245.508 C 90.282 245.905,78.511 245.760,78.630 245.361 C 78.686 245.173,78.566 245.327,78.363 245.703 C 78.161 246.079,78.020 246.543,78.050 246.734 C 78.080 246.925,78.037 247.039,77.954 246.988 C 77.535 246.729,75.328 254.802,74.538 259.489 C 73.729 264.286,73.564 266.548,73.558 272.949 C 73.553 278.312,73.634 279.944,74.134 284.473 C 74.620 288.878,76.135 294.927,77.946 299.695 C 79.125 302.798,82.679 310.103,83.226 310.547 C 83.292 310.601,83.408 310.842,83.483 311.084 C 83.558 311.326,83.702 311.523,83.802 311.523 C 83.902 311.523,83.984 311.615,83.984 311.728 C 83.984 312.325,87.965 317.704,89.402 319.048 C 89.979 319.589,90.473 320.180,90.500 320.363 C 90.618 321.163,91.365 321.617,92.632 321.657 L 93.848 321.696 94.817 320.711 L 95.786 319.727 98.072 319.727 C 100.515 319.727,101.200 319.549,102.904 318.473 C 103.584 318.044,103.927 317.969,105.204 317.969 C 106.739 317.969,107.533 317.673,108.962 316.570 C 109.354 316.267,109.794 316.211,111.757 316.211 C 113.564 316.211,114.054 316.156,113.946 315.967 C 113.869 315.833,114.062 315.951,114.374 316.230 C 128.728 329.060,154.958 336.157,175.306 332.715 C 195.952 329.223,223.330 312.287,239.429 293.050 C 240.785 291.430,242.187 289.760,242.544 289.339 L 243.193 288.574 242.558 289.453 C 242.209 289.937,241.703 290.573,241.435 290.867 C 241.166 291.161,240.986 291.442,241.035 291.491 C 241.241 291.697,244.763 291.664,244.892 291.454 C 244.967 291.334,245.433 291.062,245.929 290.849 C 246.426 290.636,246.866 290.359,246.908 290.234 C 246.962 290.071,247.865 290.012,250.050 290.028 C 252.893 290.050,253.177 290.019,253.951 289.606 C 254.898 289.100,256.555 288.906,261.263 288.751 C 263.523 288.676,264.281 288.586,264.461 288.370 C 264.665 288.124,264.362 288.086,262.219 288.086 C 260.618 288.086,259.785 288.017,259.863 287.891 C 259.935 287.774,261.180 287.697,262.951 287.698 C 264.939 287.700,265.821 287.764,265.625 287.891 C 264.982 288.306,268.304 288.114,268.989 287.696 C 269.478 287.398,269.976 287.306,271.094 287.305 C 272.399 287.303,272.654 287.239,273.438 286.712 C 274.192 286.204,274.476 286.126,275.441 286.161 L 276.566 286.201 277.971 284.263 C 278.744 283.196,279.431 282.280,279.499 282.227 C 279.566 282.173,280.107 281.250,280.701 280.176 C 286.439 269.794,291.830 256.945,295.574 244.727 C 296.871 240.497,298.275 235.134,298.163 234.842 C 298.092 234.657,298.132 234.600,298.273 234.687 C 298.428 234.783,298.455 234.665,298.361 234.290 C 298.263 233.903,298.290 233.796,298.458 233.899 C 298.626 234.003,298.653 233.896,298.556 233.509 C 298.468 233.159,298.492 233.018,298.625 233.101 C 298.737 233.170,298.828 233.084,298.828 232.910 C 298.828 232.736,298.750 232.643,298.654 232.702 C 298.553 232.764,298.544 232.521,298.633 232.128 L 298.787 231.445 294.560 231.448 C 292.168 231.450,290.205 231.533,290.039 231.641 M232.609 232.666 C 233.418 233.528,233.594 233.683,233.594 233.537 C 233.594 233.505,233.176 233.088,232.666 232.609 L 231.738 231.738 232.609 232.666 M235.742 236.035 C 236.434 236.733,237.044 237.305,237.098 237.305 C 237.152 237.305,236.630 236.733,235.938 236.035 C 235.245 235.337,234.635 234.766,234.582 234.766 C 234.528 234.766,235.050 235.337,235.742 236.035 M237.891 238.335 C 237.891 238.365,238.572 239.046,239.404 239.849 L 240.918 241.309 239.458 239.795 C 238.102 238.389,237.891 238.192,237.891 238.335 M242.480 243.164 C 243.010 243.701,243.486 244.141,243.540 244.141 C 243.594 244.141,243.205 243.701,242.676 243.164 C 242.147 242.627,241.670 242.188,241.616 242.188 C 241.563 242.188,241.951 242.627,242.480 243.164 M246.387 247.266 C 247.133 248.018,247.787 248.633,247.841 248.633 C 247.895 248.633,247.328 248.018,246.582 247.266 C 245.836 246.514,245.181 245.898,245.128 245.898 C 245.074 245.898,245.641 246.514,246.387 247.266 M249.902 250.977 C 250.540 251.621,251.106 252.148,251.160 252.148 C 251.213 252.148,250.735 251.621,250.098 250.977 C 249.460 250.332,248.894 249.805,248.840 249.805 C 248.787 249.805,249.265 250.332,249.902 250.977 M253.312 254.541 C 254.122 255.403,254.297 255.558,254.297 255.412 C 254.297 255.380,253.879 254.963,253.369 254.484 L 252.441 253.613 253.312 254.541 M257.789 262.939 C 253.809 270.882,246.471 283.984,246.004 283.984 C 245.949 283.984,246.290 283.391,246.762 282.666 C 247.233 281.941,247.584 281.312,247.541 281.267 C 247.263 280.981,245.954 282.091,245.200 283.252 C 244.729 283.977,244.305 284.570,244.257 284.570 C 244.174 284.570,246.988 279.912,251.482 272.612 C 252.654 270.707,254.744 267.301,256.126 265.043 C 257.507 262.785,258.673 260.938,258.715 260.938 C 258.758 260.938,258.341 261.838,257.789 262.939 M107.467 265.234 C 107.467 265.610,107.507 265.764,107.557 265.576 C 107.606 265.388,107.606 265.081,107.557 264.893 C 107.507 264.705,107.467 264.858,107.467 265.234 M107.280 267.188 C 107.280 267.671,107.318 267.869,107.364 267.627 C 107.411 267.385,107.411 266.990,107.364 266.748 C 107.318 266.506,107.280 266.704,107.280 267.188 M107.112 273.047 C 107.112 275.034,107.141 275.847,107.177 274.854 C 107.212 273.860,107.212 272.234,107.177 271.240 C 107.141 270.247,107.112 271.060,107.112 273.047 M107.282 278.027 C 107.284 278.564,107.322 278.761,107.367 278.464 C 107.412 278.167,107.410 277.728,107.364 277.488 C 107.318 277.247,107.281 277.490,107.282 278.027 M107.471 279.980 C 107.473 280.410,107.513 280.563,107.560 280.320 C 107.607 280.077,107.605 279.725,107.556 279.539 C 107.507 279.352,107.469 279.551,107.471 279.980 M274.609 288.867 C 274.380 289.189,274.236 289.453,274.290 289.453 C 274.344 289.453,274.575 289.189,274.805 288.867 C 275.034 288.545,275.178 288.281,275.124 288.281 C 275.071 288.281,274.839 288.545,274.609 288.867 M285.444 289.844 C 286.062 290.627,289.492 294.171,299.905 304.788 C 315.664 320.854,321.816 327.264,323.125 328.981 C 324.785 331.158,325.925 334.311,326.169 337.402 L 326.308 339.160 326.338 337.092 C 326.413 331.829,325.434 330.171,317.129 321.488 C 288.474 291.532,286.249 289.260,286.058 289.757 C 285.938 290.069,285.900 290.067,285.494 289.724 L 285.059 289.355 285.444 289.844 M110.951 293.066 C 110.951 293.174,111.077 293.481,111.230 293.750 C 111.384 294.019,111.510 294.150,111.510 294.043 C 111.510 293.936,111.384 293.628,111.230 293.359 C 111.077 293.091,110.951 292.959,110.951 293.066 M112.402 296.094 C 112.569 296.416,112.749 296.680,112.803 296.680 C 112.857 296.680,112.764 296.416,112.598 296.094 C 112.431 295.771,112.251 295.508,112.197 295.508 C 112.143 295.508,112.236 295.771,112.402 296.094 M113.146 297.363 C 113.312 297.686,113.593 298.125,113.771 298.340 C 113.950 298.555,113.899 298.379,113.657 297.949 C 113.125 297.001,112.726 296.544,113.146 297.363 M116.602 302.588 C 116.890 302.981,116.937 303.117,116.726 302.946 C 116.406 302.686,115.921 301.953,116.070 301.953 C 116.107 301.953,116.347 302.239,116.602 302.588 M106.057 306.982 C 106.519 307.600,106.744 307.979,106.557 307.824 C 106.206 307.533,104.998 305.859,105.138 305.859 C 105.182 305.859,105.595 306.365,106.057 306.982 " stroke="none" fill="#dc4887" fill-rule="evenodd"></path><path id="path1" d="M175.098 48.842 C 155.907 49.758,144.388 54.384,130.368 66.803 C 120.725 75.344,114.180 86.882,113.009 97.399 C 112.930 98.109,112.984 97.993,113.228 96.924 L 113.552 95.508 125.135 95.508 L 136.719 95.508 136.719 93.548 L 136.719 91.588 141.131 91.609 L 145.544 91.630 146.152 90.785 C 152.979 81.303,163.468 75.797,176.563 74.822 C 177.905 74.722,179.268 74.539,179.590 74.415 C 184.330 72.597,197.427 69.854,206.118 68.859 C 214.991 67.843,230.918 67.469,231.863 68.254 C 232.117 68.465,231.621 67.907,230.762 67.013 C 226.465 62.548,218.818 57.293,213.281 55.001 C 212.798 54.801,212.139 54.529,211.816 54.397 C 211.494 54.265,210.967 54.046,210.645 53.910 C 204.418 51.290,194.104 49.274,184.664 48.833 C 180.170 48.623,179.666 48.623,175.098 48.842 M112.545 100.195 C 112.545 100.571,112.586 100.725,112.635 100.537 C 112.684 100.349,112.684 100.042,112.635 99.854 C 112.586 99.666,112.545 99.819,112.545 100.195 M112.350 101.563 C 112.350 101.938,112.390 102.092,112.439 101.904 C 112.488 101.716,112.488 101.409,112.439 101.221 C 112.390 101.033,112.350 101.187,112.350 101.563 M112.159 103.223 C 112.161 103.652,112.201 103.805,112.248 103.562 C 112.294 103.319,112.292 102.968,112.244 102.781 C 112.195 102.594,112.156 102.793,112.159 103.223 M111.959 105.273 C 111.959 105.649,112.000 105.803,112.049 105.615 C 112.098 105.427,112.098 105.120,112.049 104.932 C 112.000 104.744,111.959 104.897,111.959 105.273 M111.784 108.789 C 111.784 109.595,111.819 109.924,111.861 109.521 C 111.903 109.119,111.903 108.459,111.861 108.057 C 111.819 107.654,111.784 107.983,111.784 108.789 M143.945 133.077 C 143.945 133.892,146.790 140.580,148.186 143.045 C 151.090 148.175,160.915 160.711,167.884 168.178 C 168.844 169.206,171.343 171.884,173.438 174.129 C 178.958 180.044,189.465 190.866,187.700 188.818 L 187.237 188.281 187.954 188.281 C 188.621 188.281,188.672 188.322,188.672 188.867 C 188.672 189.388,188.737 189.453,189.258 189.453 C 189.648 189.453,189.844 189.551,189.844 189.746 C 189.844 189.941,190.039 190.039,190.430 190.039 C 190.885 190.039,191.016 190.126,191.016 190.430 C 191.016 190.758,191.146 190.820,191.836 190.820 C 192.490 190.820,192.798 190.949,193.348 191.455 C 194.860 192.844,188.703 186.521,183.886 181.738 C 179.124 177.010,174.345 171.950,171.166 168.272 C 170.428 167.418,168.690 165.528,167.303 164.072 C 156.744 152.988,149.198 143.200,145.185 135.383 C 144.503 134.055,143.945 133.018,143.945 133.077 M288.184 172.072 C 287.754 172.169,287.227 172.289,287.012 172.338 C 283.769 173.081,279.441 176.438,277.879 179.423 C 276.928 181.241,276.951 181.420,277.940 179.890 C 285.303 168.498,301.629 170.961,305.270 184.015 C 305.635 185.324,305.660 185.364,305.559 184.473 C 304.922 178.892,301.431 174.410,296.309 172.599 C 294.491 171.956,289.984 171.664,288.184 172.072 M188.062 186.133 L 188.690 186.914 188.193 186.914 C 187.881 186.914,187.695 186.805,187.695 186.621 C 187.695 186.439,187.511 186.328,187.207 186.328 C 186.842 186.328,186.719 186.225,186.719 185.919 C 186.719 185.542,186.645 185.520,185.763 185.642 C 185.153 185.726,184.761 185.697,184.678 185.562 C 184.589 185.419,185.008 185.352,185.991 185.352 L 187.435 185.352 188.062 186.133 M186.719 187.305 C 186.719 187.520,186.688 187.695,186.651 187.695 C 186.614 187.695,186.425 187.520,186.230 187.305 C 185.887 186.926,185.889 186.914,186.298 186.914 C 186.589 186.914,186.719 187.035,186.719 187.305 M195.605 193.945 C 196.135 194.482,196.611 194.922,196.665 194.922 C 196.719 194.922,196.330 194.482,195.801 193.945 C 195.272 193.408,194.795 192.969,194.741 192.969 C 194.688 192.969,195.076 193.408,195.605 193.945 " stroke="none" fill="#fbbe5a" fill-rule="evenodd"></path><path id="path2" d="M175.933 48.776 C 176.392 48.817,177.095 48.817,177.495 48.775 C 177.895 48.733,177.520 48.699,176.660 48.700 C 175.801 48.700,175.474 48.735,175.933 48.776 M182.769 48.776 C 183.228 48.817,183.931 48.817,184.331 48.775 C 184.731 48.733,184.355 48.699,183.496 48.700 C 182.637 48.700,182.309 48.735,182.769 48.776 M172.414 48.966 C 172.657 49.013,173.009 49.011,173.196 48.962 C 173.382 48.913,173.184 48.875,172.754 48.877 C 172.324 48.880,172.171 48.920,172.414 48.966 M187.258 48.966 C 187.501 49.013,187.853 49.011,188.039 48.962 C 188.226 48.913,188.027 48.875,187.598 48.877 C 187.168 48.880,187.015 48.920,187.258 48.966 M169.971 49.158 C 170.159 49.207,170.466 49.207,170.654 49.158 C 170.842 49.109,170.688 49.069,170.313 49.069 C 169.937 49.069,169.783 49.109,169.971 49.158 M154.395 51.953 C 154.148 52.059,154.112 52.121,154.297 52.121 C 154.458 52.121,154.766 52.045,154.980 51.953 C 155.227 51.847,155.263 51.785,155.078 51.785 C 154.917 51.785,154.609 51.861,154.395 51.953 M205.371 52.148 C 205.586 52.241,205.894 52.316,206.055 52.316 C 206.239 52.316,206.203 52.254,205.957 52.148 C 205.742 52.056,205.435 51.981,205.273 51.981 C 205.089 51.981,205.125 52.043,205.371 52.148 M151.793 52.763 C 151.221 52.983,150.785 53.194,150.823 53.232 C 150.861 53.270,151.461 53.091,152.155 52.833 C 152.850 52.575,153.286 52.364,153.125 52.364 C 152.964 52.364,152.364 52.544,151.793 52.763 M149.414 53.809 C 149.146 53.962,149.014 54.088,149.121 54.088 C 149.229 54.088,149.536 53.962,149.805 53.809 C 150.073 53.655,150.205 53.529,150.098 53.529 C 149.990 53.529,149.683 53.655,149.414 53.809 M230.317 66.505 L 231.629 67.871 224.359 67.894 C 209.253 67.941,195.857 69.707,183.398 73.291 C 181.519 73.832,179.585 74.388,179.102 74.526 C 178.282 74.761,178.417 74.779,181.111 74.792 C 200.382 74.879,213.916 86.187,216.309 104.199 C 217.603 113.938,215.461 123.553,210.230 131.490 C 209.465 132.650,208.955 133.504,209.096 133.387 C 209.238 133.269,209.631 132.741,209.970 132.213 L 210.586 131.252 226.411 131.202 L 242.235 131.152 242.797 129.626 C 247.506 116.822,247.479 98.742,242.731 85.645 C 240.138 78.489,235.130 70.796,229.954 66.017 C 229.408 65.512,229.562 65.720,230.317 66.505 M175.635 74.939 C 175.823 74.988,176.130 74.988,176.318 74.939 C 176.506 74.890,176.353 74.850,175.977 74.850 C 175.601 74.850,175.447 74.890,175.635 74.939 M161.719 78.223 C 161.450 78.376,161.318 78.502,161.426 78.502 C 161.533 78.502,161.841 78.376,162.109 78.223 C 162.378 78.069,162.510 77.944,162.402 77.944 C 162.295 77.944,161.987 78.069,161.719 78.223 M159.912 79.017 C 159.402 79.282,158.984 79.543,158.984 79.597 C 158.984 79.684,160.918 78.771,161.117 78.590 C 161.358 78.369,160.723 78.595,159.912 79.017 M158.154 79.995 C 157.424 80.391,157.469 80.556,158.203 80.176 C 158.525 80.009,158.789 79.831,158.789 79.780 C 158.789 79.654,158.768 79.662,158.154 79.995 M149.798 86.475 L 148.730 87.598 149.854 86.530 C 150.897 85.538,151.066 85.352,150.921 85.352 C 150.891 85.352,150.385 85.857,149.798 86.475 M114.966 89.001 C 114.171 91.405,113.276 94.681,113.296 95.117 C 113.303 95.278,113.606 94.312,113.970 92.969 C 114.333 91.626,114.898 89.743,115.225 88.785 C 115.551 87.826,115.784 87.008,115.742 86.966 C 115.700 86.924,115.351 87.840,114.966 89.001 M147.195 89.423 C 147.016 89.621,146.574 90.199,146.213 90.707 L 145.556 91.630 141.138 91.609 L 136.719 91.588 136.719 93.548 L 136.719 95.508 125.129 95.508 L 113.539 95.508 113.276 96.903 C 113.083 97.926,112.972 98.199,112.858 97.928 C 112.766 97.709,112.739 97.956,112.792 98.535 C 112.860 99.284,112.839 99.398,112.700 99.023 C 112.566 98.662,112.540 98.839,112.602 99.707 C 112.664 100.574,112.638 100.752,112.504 100.391 C 112.372 100.032,112.347 100.214,112.413 101.074 C 112.478 101.922,112.450 102.138,112.312 101.855 C 112.175 101.576,112.148 101.827,112.215 102.734 C 112.285 103.672,112.257 103.902,112.111 103.613 C 111.967 103.330,111.944 103.592,112.029 104.564 C 112.114 105.541,112.085 105.867,111.923 105.767 C 111.759 105.666,111.736 106.222,111.836 107.893 C 111.943 109.682,111.919 110.156,111.719 110.156 C 111.519 110.156,111.494 110.728,111.597 112.939 C 111.668 114.470,111.770 116.686,111.824 117.863 C 112.659 136.177,119.894 154.776,131.725 169.025 C 134.304 172.132,144.611 183.445,142.994 181.395 C 142.742 181.075,142.881 181.055,145.289 181.055 L 147.852 181.055 147.852 181.529 L 147.852 182.003 150.342 181.892 C 153.189 181.766,156.845 181.977,156.424 182.244 C 156.249 182.355,156.547 182.417,157.264 182.419 C 157.875 182.421,158.430 182.334,158.496 182.227 C 158.685 181.920,164.648 181.967,164.648 182.275 C 164.648 182.464,165.445 182.504,168.164 182.452 C 170.681 182.403,171.680 182.446,171.680 182.604 C 171.680 182.762,173.057 182.819,176.548 182.806 L 181.417 182.788 182.130 183.532 C 182.521 183.942,182.813 184.179,182.778 184.058 C 182.671 183.689,175.944 176.852,175.744 176.909 C 175.641 176.939,175.609 176.879,175.672 176.777 C 175.735 176.675,174.395 175.113,172.694 173.305 C 166.950 167.202,166.143 166.316,163.209 162.896 C 151.820 149.621,147.139 142.536,144.427 134.473 C 143.958 133.076,143.214 130.985,142.775 129.826 C 140.670 124.269,139.929 119.824,139.987 113.086 C 140.030 108.020,140.073 107.294,140.430 105.568 C 140.540 105.032,140.588 104.483,140.536 104.348 C 140.484 104.212,140.537 104.102,140.654 104.102 C 140.770 104.102,140.820 103.926,140.764 103.711 C 140.708 103.496,140.747 103.268,140.852 103.203 C 140.957 103.138,140.995 102.963,140.937 102.812 C 140.880 102.662,140.928 102.539,141.045 102.539 C 141.161 102.539,141.211 102.363,141.154 102.148 C 141.098 101.934,141.142 101.758,141.252 101.758 C 141.362 101.758,141.406 101.582,141.350 101.367 C 141.293 101.152,141.337 100.977,141.445 100.977 C 141.554 100.977,141.593 100.845,141.531 100.684 C 141.469 100.522,141.510 100.391,141.621 100.391 C 141.738 100.391,141.768 100.216,141.691 99.976 C 141.597 99.677,141.627 99.602,141.797 99.707 C 141.969 99.813,141.996 99.733,141.895 99.414 C 141.793 99.095,141.820 99.015,141.992 99.121 C 142.164 99.228,142.191 99.147,142.090 98.828 C 141.985 98.499,142.013 98.427,142.200 98.543 C 142.377 98.652,142.413 98.603,142.324 98.372 C 142.256 98.193,142.294 98.047,142.410 98.047 C 142.525 98.047,142.568 97.910,142.504 97.744 C 142.428 97.546,142.466 97.489,142.614 97.580 C 142.765 97.674,142.798 97.612,142.715 97.395 C 142.646 97.216,142.685 97.070,142.800 97.070 C 142.916 97.070,142.958 96.934,142.894 96.767 C 142.830 96.600,142.852 96.510,142.942 96.566 C 143.168 96.705,143.591 95.729,143.428 95.444 C 143.356 95.318,143.368 95.279,143.454 95.357 C 143.669 95.552,144.779 93.407,144.608 93.129 C 144.526 92.998,144.558 92.962,144.687 93.042 C 144.805 93.115,144.995 93.003,145.107 92.792 C 145.374 92.293,145.367 92.131,145.087 92.304 C 144.946 92.391,144.915 92.357,145.003 92.214 C 145.081 92.089,145.215 92.029,145.301 92.083 C 145.387 92.136,145.788 91.676,146.191 91.061 C 146.594 90.445,147.104 89.744,147.324 89.502 C 147.544 89.260,147.679 89.063,147.623 89.063 C 147.567 89.063,147.375 89.225,147.195 89.423 M170.141 167.139 C 170.409 167.434,171.453 168.599,172.461 169.727 C 177.215 175.046,184.351 182.469,185.212 182.988 C 185.450 183.132,184.546 182.118,183.202 180.736 C 176.519 173.858,174.699 171.949,172.377 169.385 C 170.991 167.854,169.811 166.602,169.755 166.602 C 169.699 166.602,169.873 166.843,170.141 167.139 M184.678 185.562 C 184.761 185.697,185.153 185.726,185.763 185.642 C 186.645 185.520,186.719 185.542,186.719 185.919 C 186.719 186.225,186.842 186.328,187.207 186.328 C 187.511 186.328,187.695 186.439,187.695 186.621 C 187.695 186.805,187.881 186.914,188.193 186.914 L 188.690 186.914 188.062 186.133 L 187.435 185.352 185.991 185.352 C 185.008 185.352,184.589 185.419,184.678 185.562 " stroke="none" fill="#fba255" fill-rule="evenodd"></path><path id="path3" d="M171.143 48.963 C 171.331 49.012,171.638 49.012,171.826 48.963 C 172.014 48.914,171.860 48.873,171.484 48.873 C 171.108 48.873,170.955 48.914,171.143 48.963 M192.236 49.353 C 192.424 49.403,192.732 49.403,192.920 49.353 C 193.108 49.304,192.954 49.264,192.578 49.264 C 192.202 49.264,192.048 49.304,192.236 49.353 M148.340 53.915 C 142.359 56.202,133.100 61.389,129.970 64.206 C 129.760 64.396,128.797 65.206,127.831 66.007 C 119.646 72.790,113.460 82.118,110.446 92.219 C 109.651 94.885,109.244 96.718,109.869 94.824 C 110.010 94.395,110.133 94.197,110.141 94.385 C 110.154 94.678,110.361 94.727,111.608 94.727 C 112.827 94.727,113.072 94.781,113.143 95.068 C 113.189 95.256,113.192 95.103,113.149 94.727 C 113.088 94.189,113.118 94.106,113.290 94.336 C 113.462 94.567,113.482 94.511,113.387 94.075 C 113.299 93.676,113.330 93.562,113.497 93.665 C 113.665 93.769,113.692 93.661,113.595 93.274 C 113.498 92.888,113.525 92.780,113.693 92.884 C 113.859 92.987,113.889 92.885,113.798 92.525 C 113.647 91.923,113.827 91.359,114.114 91.536 C 114.244 91.616,114.280 91.511,114.212 91.251 C 114.152 91.024,114.169 90.813,114.249 90.781 C 114.330 90.749,114.641 89.976,114.941 89.063 C 119.303 75.797,131.763 62.757,147.829 54.644 C 149.697 53.701,151.147 52.933,151.052 52.937 C 150.957 52.940,149.736 53.381,148.340 53.915 M227.930 64.124 C 227.930 64.157,228.215 64.443,228.564 64.758 L 229.199 65.332 228.626 64.697 C 228.091 64.106,227.930 63.973,227.930 64.124 M236.328 73.438 C 236.558 73.760,236.789 74.023,236.843 74.023 C 236.897 74.023,236.753 73.760,236.523 73.438 C 236.294 73.115,236.062 72.852,236.009 72.852 C 235.955 72.852,236.099 73.115,236.328 73.438 M183.838 74.939 C 184.026 74.988,184.333 74.988,184.521 74.939 C 184.709 74.890,184.556 74.850,184.180 74.850 C 183.804 74.850,183.650 74.890,183.838 74.939 M198.063 78.393 C 198.264 78.573,199.414 79.101,199.414 79.014 C 199.414 78.901,198.331 78.320,198.122 78.320 C 198.045 78.320,198.018 78.353,198.063 78.393 M205.273 83.069 C 205.273 83.103,205.559 83.388,205.908 83.704 L 206.543 84.277 205.969 83.643 C 205.435 83.051,205.273 82.918,205.273 83.069 M207.422 85.217 C 207.422 85.251,207.708 85.537,208.057 85.852 L 208.691 86.426 208.118 85.791 C 207.583 85.199,207.422 85.066,207.422 85.217 M243.950 89.372 C 243.960 89.723,244.887 93.061,244.904 92.806 C 244.924 92.511,244.151 89.399,244.026 89.274 C 243.982 89.229,243.947 89.273,243.950 89.372 M211.538 90.527 C 211.779 90.957,212.060 91.396,212.163 91.504 C 212.455 91.810,211.787 90.573,211.424 90.137 C 211.245 89.922,211.297 90.098,211.538 90.527 M244.964 93.457 C 244.966 93.672,245.035 94.111,245.117 94.434 C 245.251 94.960,245.267 94.970,245.270 94.531 C 245.272 94.263,245.203 93.823,245.117 93.555 C 244.995 93.172,244.962 93.151,244.964 93.457 M245.347 95.410 C 245.340 95.625,245.408 96.152,245.497 96.582 C 245.632 97.239,245.658 97.270,245.658 96.777 C 245.657 96.093,245.365 94.810,245.347 95.410 M112.607 97.567 C 112.532 98.066,112.511 98.513,112.559 98.562 C 112.608 98.611,112.709 98.243,112.784 97.745 C 112.859 97.247,112.880 96.799,112.831 96.750 C 112.782 96.702,112.681 97.069,112.607 97.567 M245.748 98.047 C 245.748 98.423,245.789 98.577,245.838 98.389 C 245.887 98.201,245.887 97.893,245.838 97.705 C 245.789 97.517,245.748 97.671,245.748 98.047 M112.350 99.414 C 112.350 99.790,112.390 99.944,112.439 99.756 C 112.488 99.568,112.488 99.260,112.439 99.072 C 112.390 98.884,112.350 99.038,112.350 99.414 M245.952 99.609 C 245.952 100.093,245.990 100.291,246.036 100.049 C 246.083 99.807,246.083 99.412,246.036 99.170 C 245.990 98.928,245.952 99.126,245.952 99.609 M112.159 100.879 C 112.161 101.309,112.201 101.461,112.248 101.218 C 112.294 100.975,112.292 100.624,112.244 100.437 C 112.195 100.250,112.156 100.449,112.159 100.879 M246.150 101.660 C 246.151 102.197,246.189 102.394,246.234 102.097 C 246.279 101.800,246.278 101.361,246.231 101.120 C 246.185 100.880,246.148 101.123,246.150 101.660 M111.967 102.539 C 111.967 103.022,112.005 103.220,112.052 102.979 C 112.098 102.737,112.098 102.341,112.052 102.100 C 112.005 101.858,111.967 102.056,111.967 102.539 M246.315 107.617 C 246.266 116.135,245.118 123.315,242.797 129.626 L 242.235 131.152 226.402 131.250 L 210.568 131.348 209.818 132.422 C 209.405 133.013,209.018 133.452,208.958 133.398 C 208.818 133.273,208.203 133.779,208.203 134.020 C 208.203 134.120,208.305 134.140,208.429 134.063 C 208.569 133.976,208.601 134.010,208.513 134.153 C 208.435 134.278,208.300 134.337,208.212 134.283 C 207.996 134.149,207.555 134.702,207.696 134.930 C 207.758 135.030,207.655 135.232,207.469 135.378 C 207.155 135.624,207.151 135.615,207.416 135.254 C 207.628 134.965,207.564 134.987,207.172 135.337 C 206.632 135.818,206.440 136.271,206.885 136.015 C 207.027 135.934,207.061 135.949,206.966 136.053 C 206.877 136.150,206.701 136.234,206.576 136.239 C 206.450 136.244,206.370 136.354,206.396 136.483 C 206.423 136.613,206.379 136.700,206.299 136.678 C 206.218 136.656,204.614 138.178,202.734 140.061 C 199.486 143.315,197.469 145.189,195.508 146.778 C 195.024 147.170,194.541 147.593,194.434 147.720 C 194.326 147.846,193.755 148.311,193.164 148.752 C 192.573 149.194,191.870 149.774,191.602 150.041 C 191.009 150.630,185.940 154.483,184.180 155.684 C 183.481 156.160,182.422 156.911,181.826 157.354 C 181.229 157.796,179.603 158.923,178.212 159.858 C 176.822 160.793,175.529 161.682,175.340 161.834 C 175.150 161.985,174.909 162.109,174.802 162.109 C 174.696 162.109,174.609 162.176,174.609 162.257 C 174.609 162.338,174.362 162.514,174.060 162.648 C 173.758 162.781,173.322 163.067,173.092 163.281 C 172.861 163.496,172.581 163.672,172.469 163.672 C 172.357 163.672,172.266 163.760,172.266 163.867 C 172.266 163.975,172.173 164.063,172.060 164.063 C 171.905 164.063,169.916 165.301,169.365 165.740 C 169.058 165.984,175.210 172.604,184.392 181.910 L 188.030 185.597 189.474 184.719 C 191.706 183.362,199.928 177.833,200.724 177.154 C 200.854 177.044,201.014 176.953,201.080 176.953 C 201.146 176.953,201.322 176.843,201.472 176.709 C 202.063 176.179,202.332 175.977,202.447 175.977 C 202.513 175.977,202.682 175.867,202.822 175.732 C 202.962 175.598,203.274 175.356,203.514 175.195 C 204.220 174.722,205.740 173.571,206.020 173.299 C 206.162 173.160,206.338 173.047,206.412 173.047 C 206.486 173.047,206.766 172.848,207.033 172.605 C 207.301 172.362,209.014 170.967,210.840 169.506 C 223.010 159.770,232.237 150.079,237.332 141.682 C 238.078 140.451,238.628 139.345,238.553 139.223 C 238.474 139.096,238.503 139.056,238.621 139.129 C 238.867 139.281,239.117 138.723,238.935 138.429 C 238.865 138.314,238.895 138.275,239.002 138.342 C 239.811 138.841,244.059 127.510,245.213 121.777 C 246.178 116.983,246.911 106.026,246.435 103.516 C 246.384 103.247,246.330 105.093,246.315 107.617 M111.779 104.590 C 111.780 105.234,111.817 105.475,111.860 105.123 C 111.904 104.772,111.903 104.245,111.858 103.952 C 111.814 103.658,111.778 103.945,111.779 104.590 M216.456 106.543 C 216.458 106.973,216.498 107.125,216.544 106.882 C 216.591 106.640,216.589 106.288,216.540 106.101 C 216.492 105.915,216.453 106.113,216.456 106.543 M111.595 108.301 C 111.595 109.375,111.628 109.790,111.668 109.222 C 111.707 108.654,111.707 107.775,111.667 107.269 C 111.627 106.762,111.594 107.227,111.595 108.301 M107.467 110.156 C 107.467 110.532,107.507 110.686,107.557 110.498 C 107.606 110.310,107.606 110.002,107.557 109.814 C 107.507 109.626,107.467 109.780,107.467 110.156 M216.657 110.645 C 216.659 111.182,216.697 111.378,216.742 111.081 C 216.787 110.784,216.785 110.345,216.739 110.105 C 216.693 109.865,216.656 110.107,216.657 110.645 M216.462 113.379 C 216.464 113.916,216.502 114.113,216.546 113.816 C 216.591 113.519,216.590 113.079,216.544 112.839 C 216.497 112.599,216.461 112.842,216.462 113.379 M111.590 114.941 C 111.591 115.801,111.625 116.128,111.667 115.669 C 111.708 115.209,111.707 114.506,111.665 114.106 C 111.623 113.706,111.590 114.082,111.590 114.941 M111.768 118.848 C 111.770 119.277,111.810 119.430,111.857 119.187 C 111.904 118.944,111.902 118.593,111.853 118.406 C 111.804 118.219,111.766 118.418,111.768 118.848 M111.959 121.289 C 111.959 121.665,112.000 121.819,112.049 121.631 C 112.098 121.443,112.098 121.135,112.049 120.947 C 112.000 120.759,111.959 120.913,111.959 121.289 M212.557 126.928 C 211.890 128.285,210.771 130.267,210.069 131.334 C 209.368 132.400,208.829 133.308,208.872 133.351 C 209.116 133.595,212.110 128.587,213.191 126.128 C 214.231 123.762,213.921 124.154,212.557 126.928 M288.720 172.867 C 284.443 173.526,280.202 176.363,277.849 180.138 C 276.293 182.635,275.586 186.324,275.755 191.064 L 275.781 191.797 290.430 191.797 C 303.320 191.797,305.078 191.762,305.078 191.504 C 305.078 191.343,305.144 191.211,305.225 191.211 C 305.305 191.211,305.340 190.763,305.302 190.216 C 305.264 189.668,305.314 189.139,305.413 189.041 C 305.686 188.767,305.507 185.229,305.152 183.895 C 303.121 176.257,296.323 171.694,288.720 172.867 M136.484 174.756 C 137.021 175.374,138.486 176.934,139.740 178.223 C 141.560 180.095,141.383 179.869,138.856 177.100 C 135.806 173.758,134.468 172.436,136.484 174.756 M142.991 181.787 C 143.003 181.868,143.552 182.414,144.212 183.002 L 145.410 184.070 144.244 182.855 C 143.058 181.619,142.952 181.529,142.991 181.787 M181.175 182.900 C 181.235 183.055,181.606 183.421,181.999 183.712 L 182.715 184.241 181.943 183.429 C 181.095 182.537,181.015 182.482,181.175 182.900 M146.582 185.547 C 147.002 185.977,147.389 186.328,147.443 186.328 C 147.496 186.328,147.197 185.977,146.777 185.547 C 146.358 185.117,145.971 184.766,145.917 184.766 C 145.863 184.766,146.162 185.117,146.582 185.547 M135.751 186.335 C 134.919 186.840,133.553 187.726,132.713 188.304 C 129.268 190.678,127.838 191.568,127.645 191.459 C 127.533 191.396,127.508 191.417,127.589 191.507 C 127.780 191.717,126.751 192.398,126.477 192.243 C 126.363 192.178,126.334 192.196,126.413 192.283 C 126.492 192.371,126.404 192.570,126.218 192.726 C 125.879 193.010,126.709 192.556,127.436 192.060 C 128.228 191.519,133.630 191.700,134.180 192.285 C 134.432 192.554,134.750 192.773,134.885 192.773 C 135.021 192.773,135.539 193.125,136.035 193.555 C 136.532 193.984,137.069 194.336,137.230 194.336 C 137.391 194.336,137.475 194.414,137.416 194.509 C 137.357 194.604,137.440 194.791,137.600 194.924 C 137.831 195.115,137.891 195.115,137.891 194.922 C 137.891 194.729,137.950 194.728,138.181 194.920 C 138.341 195.053,138.416 195.253,138.347 195.365 C 138.277 195.477,138.314 195.510,138.431 195.438 C 138.546 195.367,138.802 195.507,138.999 195.750 C 139.197 195.993,139.533 196.323,139.747 196.484 C 140.108 196.756,140.117 196.752,139.869 196.436 C 139.637 196.140,139.644 196.094,139.917 196.094 C 140.092 196.094,140.234 196.226,140.234 196.387 C 140.234 196.548,140.363 196.680,140.521 196.680 C 140.678 196.680,141.107 196.943,141.474 197.266 C 141.841 197.588,142.267 197.852,142.421 197.852 C 142.575 197.852,142.953 198.115,143.262 198.438 C 143.570 198.760,143.922 199.023,144.043 199.023 C 144.164 199.023,144.515 199.287,144.824 199.609 C 145.133 199.932,145.470 200.195,145.572 200.195 C 145.675 200.195,146.222 200.591,146.787 201.074 C 147.353 201.558,147.869 201.953,147.934 201.953 C 148.059 201.953,150.031 203.301,150.195 203.499 C 150.249 203.564,150.667 203.859,151.123 204.155 C 151.580 204.451,151.953 204.780,151.953 204.886 C 151.953 204.991,152.089 205.078,152.255 205.078 C 152.421 205.078,152.777 205.298,153.045 205.566 C 153.314 205.835,153.622 206.055,153.731 206.055 C 153.840 206.055,153.867 206.156,153.790 206.280 C 153.644 206.516,153.953 206.380,154.462 205.985 C 154.676 205.819,154.658 205.756,154.366 205.654 C 154.168 205.584,154.005 205.405,154.005 205.254 C 154.004 205.104,153.919 204.937,153.816 204.883 C 153.389 204.661,152.816 203.989,152.881 203.787 C 152.919 203.668,152.506 203.084,151.964 202.490 C 151.001 201.436,150.728 200.999,151.221 201.296 C 151.355 201.377,151.177 201.114,150.826 200.710 C 150.474 200.307,150.229 199.908,150.280 199.825 C 150.332 199.742,149.850 199.083,149.211 198.363 C 148.571 197.642,148.047 196.963,148.047 196.855 C 148.047 196.255,138.130 185.417,137.581 185.417 C 137.405 185.417,136.582 185.830,135.751 186.335 M149.316 188.477 C 149.736 188.906,150.123 189.258,150.177 189.258 C 150.231 189.258,149.931 188.906,149.512 188.477 C 149.092 188.047,148.705 187.695,148.651 187.695 C 148.597 187.695,148.897 188.047,149.316 188.477 M152.148 191.504 C 152.513 191.880,152.855 192.188,152.909 192.188 C 152.962 192.188,152.708 191.880,152.344 191.504 C 151.979 191.128,151.637 190.820,151.584 190.820 C 151.530 190.820,151.784 191.128,152.148 191.504 M154.883 194.434 C 155.247 194.810,155.589 195.117,155.643 195.117 C 155.697 195.117,155.443 194.810,155.078 194.434 C 154.714 194.058,154.372 193.750,154.318 193.750 C 154.264 193.750,154.518 194.058,154.883 194.434 " stroke="none" fill="#f47244" fill-rule="evenodd"></path><path id="path4" d="M177.344 39.781 C 138.907 41.228,110.485 59.468,100.706 88.965 C 95.616 104.317,95.016 124.120,99.139 140.723 C 102.369 153.731,107.953 164.068,120.504 180.273 C 122.749 183.173,122.686 183.286,116.211 187.894 C 77.957 215.122,62.458 241.040,62.429 277.832 C 62.385 332.094,100.552 366.110,164.453 368.763 C 200.319 370.253,234.180 358.773,260.418 336.228 C 263.342 333.715,264.110 333.203,264.954 333.203 C 266.211 333.203,266.025 333.022,282.217 349.994 C 298.133 366.676,300.225 368.027,311.294 368.766 C 323.610 369.588,332.436 365.970,337.807 357.898 C 343.010 350.078,343.511 335.599,338.889 326.629 C 337.085 323.128,336.504 322.458,324.023 309.473 C 298.230 282.639,300.481 285.154,300.508 283.203 C 300.520 282.294,300.816 281.438,302.398 277.733 C 312.656 253.706,319.310 225.303,321.114 197.852 C 322.586 175.451,314.939 164.547,296.843 163.244 C 282.813 162.234,272.628 167.024,267.956 176.830 C 266.084 180.761,265.198 185.210,264.256 195.410 C 262.870 210.428,261.144 220.906,258.311 231.500 C 256.493 238.300,256.324 238.360,251.999 233.753 C 250.631 232.295,247.178 228.653,244.326 225.659 C 241.474 222.665,237.739 218.721,236.026 216.895 C 234.314 215.068,231.813 212.430,230.470 211.031 C 226.767 207.176,221.523 201.648,218.090 197.980 C 212.843 192.374,212.798 192.793,219.175 187.952 C 252.710 162.497,265.000 138.143,261.807 103.468 C 257.922 61.275,226.941 37.914,177.344 39.781 M187.402 48.833 C 219.090 50.703,241.526 69.181,245.700 96.847 C 248.342 114.353,244.954 130.355,235.646 144.336 C 227.860 156.031,211.661 170.456,191.895 183.298 C 189.961 184.555,188.379 185.658,188.379 185.751 C 188.379 185.844,191.419 189.110,195.135 193.009 C 201.374 199.554,220.399 219.618,226.861 226.465 C 232.971 232.941,255.456 256.666,257.171 258.446 L 259.003 260.350 259.781 258.657 C 262.080 253.659,265.807 243.338,267.755 236.580 C 271.547 223.424,274.290 207.012,275.484 190.332 C 275.809 185.782,276.139 183.538,276.735 181.805 C 280.863 169.805,298.222 168.083,303.987 179.102 C 306.055 183.053,306.124 187.123,304.379 202.148 C 301.293 228.721,294.238 253.536,283.889 274.219 C 281.640 278.713,279.761 282.161,279.098 283.008 C 278.546 283.714,270.252 295.501,265.369 302.518 C 259.904 310.373,251.298 318.949,241.504 326.301 C 214.822 346.330,182.258 354.427,148.182 349.506 C 100.687 342.646,71.369 311.332,73.445 269.680 C 74.831 241.860,88.072 220.764,118.473 197.939 C 124.875 193.133,136.661 185.393,137.553 185.410 C 137.840 185.416,143.144 190.885,145.500 193.604 C 145.849 194.006,146.257 194.336,146.407 194.336 C 146.557 194.336,146.658 194.418,146.631 194.518 C 146.536 194.872,156.297 204.711,156.625 204.591 C 156.795 204.530,156.670 204.699,156.348 204.967 C 156.025 205.235,155.707 205.458,155.640 205.462 C 155.427 205.474,147.242 211.001,143.996 213.325 C 117.930 231.981,107.298 249.186,107.333 272.656 C 107.378 302.824,128.374 321.105,165.017 322.881 C 194.300 324.301,221.283 312.072,241.046 288.423 L 242.968 286.122 213.737 255.805 C 197.659 239.131,182.299 223.203,179.602 220.410 C 166.520 206.860,164.855 205.113,158.008 197.753 C 148.028 187.026,145.799 184.650,143.351 182.129 C 140.185 178.869,138.738 177.317,136.429 174.707 C 135.479 173.633,134.421 172.441,134.077 172.059 C 122.360 159.031,113.511 144.568,110.258 133.130 C 102.913 107.305,109.816 80.938,127.831 66.007 C 128.797 65.206,129.760 64.396,129.970 64.206 C 133.196 61.303,142.809 55.966,148.828 53.736 C 160.059 49.576,172.723 47.966,187.402 48.833 M176.660 74.934 C 154.055 76.765,139.977 91.474,139.958 113.281 C 139.944 129.507,146.922 142.323,167.696 164.224 L 169.238 165.850 174.121 162.560 C 206.849 140.508,217.340 127.089,216.538 108.301 C 215.611 86.567,199.497 73.084,176.660 74.934 M186.914 93.448 C 196.429 94.890,203.923 102.664,204.891 112.096 C 205.998 122.886,198.884 132.757,179.688 147.066 C 174.046 151.272,173.776 151.260,169.905 146.641 C 158.607 133.158,154.459 122.587,156.585 112.695 C 159.331 99.919,172.882 91.320,186.914 93.448 M162.818 226.469 C 163.281 226.740,165.706 229.100,168.207 231.714 C 170.708 234.327,177.451 241.335,183.191 247.286 C 188.931 253.237,196.885 261.488,200.867 265.623 C 204.848 269.758,210.698 275.822,213.866 279.100 C 217.034 282.377,220.386 285.850,221.316 286.816 C 224.789 290.430,224.863 291.145,222.040 293.861 C 212.457 303.082,195.890 311.159,182.617 313.083 C 150.274 317.769,124.162 302.509,123.301 278.418 C 122.718 262.075,131.153 247.911,150.299 233.084 C 159.620 225.866,160.761 225.264,162.818 226.469 M290.334 293.457 C 293.339 296.572,296.762 300.132,297.941 301.367 C 299.119 302.603,301.273 304.844,302.728 306.348 C 312.905 316.867,322.884 327.371,323.581 328.296 C 326.372 332.002,327.408 337.794,325.873 341.113 L 325.602 341.699 325.740 341.113 C 326.245 338.967,325.651 334.017,324.937 334.422 C 324.527 334.655,322.802 334.858,319.358 335.081 C 317.794 335.182,317.643 335.234,316.008 336.246 C 315.067 336.828,314.244 337.305,314.179 337.305 C 314.115 337.305,313.884 337.483,313.666 337.701 C 313.322 338.046,313.041 338.093,311.495 338.069 C 310.518 338.053,309.664 338.118,309.596 338.214 C 309.313 338.611,308.295 338.867,306.998 338.867 C 305.705 338.867,305.523 338.924,304.168 339.746 C 302.784 340.586,302.654 340.625,301.214 340.626 C 299.955 340.627,299.578 340.706,298.926 341.108 C 297.616 341.915,296.904 341.789,295.520 340.507 C 294.870 339.905,294.383 339.340,294.438 339.251 C 294.493 339.162,294.435 339.026,294.309 338.948 C 294.154 338.853,294.131 338.896,294.238 339.081 C 294.436 339.426,294.624 339.620,281.844 326.270 C 271.787 315.764,268.404 312.188,269.210 312.912 C 269.598 313.260,271.154 312.144,271.046 311.596 C 271.019 311.457,271.611 310.761,272.363 310.049 C 273.115 309.338,273.621 308.812,273.486 308.881 C 273.352 308.951,273.242 308.912,273.242 308.794 C 273.242 308.677,273.360 308.536,273.503 308.481 C 273.647 308.426,274.811 307.229,276.091 305.821 C 277.371 304.412,278.594 303.076,278.809 302.851 C 279.023 302.626,279.180 302.383,279.156 302.311 C 279.132 302.239,279.417 301.912,279.790 301.584 C 280.163 301.257,280.469 300.898,280.469 300.787 C 280.469 300.677,280.537 300.586,280.620 300.586 C 280.779 300.586,282.072 299.293,283.794 297.412 C 284.360 296.794,284.748 296.289,284.657 296.289 C 284.566 296.289,284.831 295.941,285.246 295.516 C 285.661 295.091,286.097 294.797,286.213 294.864 C 286.330 294.930,286.361 294.913,286.283 294.826 C 286.204 294.740,286.446 294.330,286.820 293.916 C 287.194 293.502,287.500 293.065,287.500 292.944 C 287.500 292.803,287.615 292.820,287.828 292.994 C 288.820 293.805,287.426 292.200,284.446 289.096 C 281.041 285.551,279.342 283.693,279.914 284.140 C 280.148 284.323,280.276 284.333,280.373 284.176 C 280.448 284.056,280.644 284.010,280.809 284.073 C 281.065 284.171,281.072 284.137,280.855 283.842 C 280.468 283.316,284.263 287.166,290.334 293.457 M295.117 339.905 C 295.117 339.938,295.403 340.224,295.752 340.540 L 296.387 341.113 295.813 340.479 C 295.278 339.887,295.117 339.754,295.117 339.905 " stroke="none" fill="#91206e" fill-rule="evenodd"></path><path id="path5" d="M144.336 133.664 C 144.336 133.876,145.502 136.133,145.611 136.133 C 145.665 136.133,145.433 135.583,145.097 134.912 C 144.459 133.640,144.336 133.438,144.336 133.664 M146.387 137.695 C 146.553 138.018,146.734 138.281,146.787 138.281 C 146.841 138.281,146.749 138.018,146.582 137.695 C 146.415 137.373,146.235 137.109,146.181 137.109 C 146.128 137.109,146.220 137.373,146.387 137.695 M154.297 149.219 C 154.637 149.648,154.960 150.000,155.013 150.000 C 155.067 150.000,154.833 149.648,154.492 149.219 C 154.152 148.789,153.829 148.438,153.776 148.438 C 153.722 148.438,153.957 148.789,154.297 149.219 M155.859 151.172 C 156.309 151.709,156.721 152.148,156.775 152.148 C 156.828 152.148,156.504 151.709,156.055 151.172 C 155.605 150.635,155.193 150.195,155.139 150.195 C 155.086 150.195,155.410 150.635,155.859 151.172 M158.984 154.944 C 158.984 154.978,159.270 155.263,159.619 155.579 L 160.254 156.152 159.680 155.518 C 159.146 154.926,158.984 154.793,158.984 154.944 M160.840 157.031 C 161.259 157.461,161.647 157.813,161.700 157.813 C 161.754 157.813,161.455 157.461,161.035 157.031 C 160.616 156.602,160.228 156.250,160.175 156.250 C 160.121 156.250,160.420 156.602,160.840 157.031 M163.303 159.747 C 164.204 160.758,165.939 162.603,167.158 163.849 C 168.821 165.548,168.650 165.335,166.474 162.996 C 162.630 158.863,161.279 157.479,163.303 159.747 M290.674 171.822 C 291.077 171.864,291.736 171.864,292.139 171.822 C 292.542 171.780,292.212 171.745,291.406 171.745 C 290.601 171.745,290.271 171.780,290.674 171.822 M142.990 181.396 C 143.344 181.854,146.661 185.459,151.660 190.821 C 153.916 193.241,157.124 196.696,158.789 198.500 L 161.816 201.780 170.605 208.255 C 181.063 215.959,195.068 226.257,199.738 229.676 C 201.581 231.025,205.492 233.895,208.429 236.054 C 212.961 239.385,216.863 242.223,227.637 250.022 C 229.100 251.081,229.227 251.135,229.632 250.869 C 230.192 250.502,234.375 250.457,234.375 250.818 C 234.375 250.945,234.622 250.813,234.923 250.525 C 235.426 250.043,235.601 250.000,237.067 250.000 C 238.318 250.000,238.801 249.916,239.302 249.610 C 239.868 249.265,240.288 249.220,242.950 249.219 L 245.959 249.219 245.587 248.787 C 245.382 248.550,246.584 249.626,248.257 251.180 C 253.540 256.085,258.984 260.888,258.984 260.643 C 258.984 260.475,258.366 259.812,250.880 251.953 C 244.276 245.021,236.089 236.374,229.980 229.882 C 225.392 225.006,217.281 216.429,211.143 209.962 C 209.258 207.976,207.010 205.603,206.149 204.689 C 199.413 197.539,194.801 192.720,193.905 191.895 C 193.322 191.357,193.110 191.138,193.433 191.406 C 193.757 191.675,192.579 190.378,190.815 188.525 C 189.052 186.672,187.565 185.156,187.512 185.156 C 187.410 185.156,188.474 186.296,191.205 189.111 L 192.863 190.820 191.939 190.820 C 191.146 190.820,191.016 190.765,191.016 190.430 C 191.016 190.126,190.885 190.039,190.430 190.039 C 190.039 190.039,189.844 189.941,189.844 189.746 C 189.844 189.551,189.648 189.453,189.258 189.453 C 188.737 189.453,188.672 189.388,188.672 188.867 C 188.672 188.322,188.621 188.281,187.954 188.281 L 187.237 188.281 187.710 188.818 C 188.440 189.646,188.111 189.345,185.566 186.852 C 184.270 185.582,183.127 184.595,183.025 184.657 C 182.923 184.720,182.776 184.669,182.698 184.543 C 182.610 184.401,182.641 184.367,182.782 184.454 C 182.906 184.531,183.008 184.500,183.008 184.387 C 183.008 184.273,182.893 184.180,182.753 184.180 C 182.613 184.180,182.162 183.872,181.752 183.496 L 181.006 182.813 176.343 182.813 C 173.089 182.813,171.680 182.748,171.680 182.598 C 171.680 182.448,170.626 182.404,168.164 182.452 C 165.445 182.504,164.648 182.464,164.648 182.275 C 164.648 181.967,158.685 181.920,158.496 182.227 C 158.430 182.334,157.875 182.421,157.264 182.419 C 156.547 182.417,156.249 182.355,156.424 182.244 C 156.845 181.977,153.189 181.766,150.342 181.892 L 147.852 182.003 147.852 181.529 L 147.852 181.055 145.289 181.055 C 142.877 181.055,142.741 181.075,142.990 181.396 M186.230 187.305 C 186.425 187.520,186.614 187.695,186.651 187.695 C 186.688 187.695,186.719 187.520,186.719 187.305 C 186.719 187.035,186.589 186.914,186.298 186.914 C 185.889 186.914,185.887 186.926,186.230 187.305 M195.801 193.945 C 196.330 194.482,196.719 194.922,196.665 194.922 C 196.611 194.922,196.135 194.482,195.605 193.945 C 195.076 193.408,194.688 192.969,194.741 192.969 C 194.795 192.969,195.272 193.408,195.801 193.945 M147.754 209.449 C 131.678 215.569,118.713 225.928,108.979 240.430 C 94.286 262.319,92.015 284.672,102.698 302.246 L 104.004 304.395 106.423 304.450 C 108.270 304.492,108.917 304.440,109.157 304.233 C 110.426 303.141,111.940 302.539,113.438 302.532 C 114.339 302.528,115.137 302.417,115.429 302.255 C 115.884 302.004,115.953 302.027,116.462 302.604 C 116.762 302.944,116.481 302.465,115.837 301.540 C 109.765 292.809,107.029 283.985,107.034 273.145 C 107.044 248.424,118.963 230.209,148.096 210.396 C 151.667 207.968,151.664 207.961,147.754 209.449 M256.126 265.043 C 254.744 267.301,252.654 270.707,251.482 272.612 C 246.988 279.912,244.174 284.570,244.257 284.570 C 244.305 284.570,244.729 283.977,245.200 283.252 C 245.954 282.091,247.263 280.981,247.541 281.267 C 247.584 281.312,247.233 281.941,246.762 282.666 C 246.290 283.391,245.949 283.984,246.004 283.984 C 246.197 283.984,248.334 280.521,250.102 277.344 C 253.588 271.078,258.912 260.938,258.715 260.938 C 258.673 260.938,257.507 262.785,256.126 265.043 M242.884 286.475 C 242.462 287.014,242.428 287.105,242.756 286.819 C 243.147 286.477,243.664 285.742,243.513 285.742 C 243.482 285.742,243.199 286.072,242.884 286.475 M105.638 306.701 C 105.957 307.163,106.370 307.669,106.557 307.824 C 106.744 307.979,106.519 307.600,106.057 306.982 C 105.074 305.667,104.801 305.484,105.638 306.701 " stroke="none" fill="#f57f71" fill-rule="evenodd"></path><path id="path6" d="M195.898 237.402 C 196.263 237.778,196.605 238.086,196.659 238.086 C 196.712 238.086,196.458 237.778,196.094 237.402 C 195.729 237.026,195.387 236.719,195.334 236.719 C 195.280 236.719,195.534 237.026,195.898 237.402 M200.586 242.249 C 200.586 242.282,200.872 242.568,201.221 242.883 L 201.855 243.457 201.282 242.822 C 200.747 242.231,200.586 242.098,200.586 242.249 M206.055 247.913 C 206.055 247.946,206.340 248.232,206.689 248.547 L 207.324 249.121 206.751 248.486 C 206.216 247.895,206.055 247.762,206.055 247.913 M216.602 258.850 C 216.602 258.884,216.887 259.169,217.236 259.485 L 217.871 260.059 217.297 259.424 C 216.763 258.832,216.602 258.699,216.602 258.850 M73.309 273.535 C 73.310 274.395,73.344 274.722,73.385 274.262 C 73.427 273.803,73.426 273.100,73.384 272.700 C 73.342 272.300,73.308 272.676,73.309 273.535 M280.863 283.891 C 281.068 284.138,281.059 284.169,280.809 284.073 C 280.644 284.010,280.448 284.056,280.373 284.176 C 280.276 284.333,280.148 284.323,279.914 284.140 C 279.253 283.623,282.064 286.681,283.812 288.379 C 284.807 289.346,285.512 289.990,285.378 289.811 C 285.174 289.537,285.202 289.465,285.561 289.351 C 285.913 289.239,286.305 289.529,287.853 291.044 C 288.880 292.049,287.713 290.784,285.260 288.232 C 282.808 285.681,280.759 283.594,280.709 283.594 C 280.658 283.594,280.727 283.728,280.863 283.891 M286.865 291.611 C 287.998 292.835,288.476 293.536,287.793 292.969 C 287.591 292.801,287.500 292.794,287.500 292.944 C 287.500 293.065,287.194 293.502,286.820 293.916 C 286.446 294.330,286.204 294.740,286.283 294.826 C 286.361 294.913,286.330 294.930,286.213 294.864 C 286.097 294.797,285.661 295.091,285.246 295.516 C 284.831 295.941,284.566 296.289,284.657 296.289 C 284.748 296.289,284.360 296.794,283.794 297.412 C 282.072 299.293,280.779 300.586,280.620 300.586 C 280.537 300.586,280.469 300.677,280.469 300.787 C 280.469 300.898,280.163 301.257,279.790 301.584 C 279.417 301.912,279.132 302.239,279.156 302.311 C 279.180 302.383,279.023 302.626,278.809 302.851 C 278.594 303.076,277.371 304.412,276.091 305.821 C 274.811 307.229,273.647 308.426,273.503 308.481 C 273.360 308.536,273.242 308.677,273.242 308.794 C 273.242 308.912,273.352 308.951,273.486 308.881 C 273.621 308.812,273.115 309.338,272.363 310.049 C 271.611 310.761,271.019 311.457,271.046 311.596 C 271.154 312.144,269.598 313.260,269.210 312.912 C 268.404 312.188,271.787 315.764,281.844 326.270 C 294.624 339.620,294.436 339.426,294.238 339.081 C 294.131 338.896,294.154 338.853,294.309 338.948 C 294.435 339.026,294.493 339.162,294.438 339.251 C 294.383 339.340,294.870 339.905,295.520 340.507 C 296.904 341.789,297.616 341.915,298.926 341.108 C 299.578 340.706,299.955 340.627,301.214 340.626 C 302.654 340.625,302.784 340.586,304.168 339.746 C 305.523 338.924,305.705 338.867,306.998 338.867 C 308.295 338.867,309.313 338.611,309.596 338.214 C 309.664 338.118,310.518 338.053,311.495 338.069 C 313.041 338.093,313.322 338.046,313.666 337.701 C 313.884 337.483,314.115 337.305,314.179 337.305 C 314.244 337.305,315.067 336.828,316.008 336.246 C 317.643 335.234,317.794 335.182,319.358 335.081 C 322.798 334.859,324.527 334.655,324.935 334.423 C 325.623 334.033,326.206 337.942,325.817 340.332 C 325.583 341.768,325.669 341.945,326.019 340.746 C 326.853 337.887,325.238 331.754,322.860 328.746 C 321.001 326.393,304.726 309.662,304.509 309.879 C 304.452 309.936,304.693 310.206,305.044 310.480 C 305.965 311.202,305.484 311.509,303.418 311.518 C 302.107 311.524,301.730 311.603,301.074 312.007 C 300.337 312.461,300.129 312.488,297.363 312.495 C 294.598 312.502,294.390 312.529,293.652 312.983 C 292.997 313.387,292.620 313.466,291.309 313.471 C 289.997 313.477,289.620 313.556,288.965 313.960 C 288.324 314.354,287.920 314.443,286.719 314.453 C 285.517 314.463,285.114 314.552,284.473 314.947 C 283.820 315.349,283.443 315.428,282.182 315.429 C 281.019 315.429,280.527 315.519,280.034 315.820 C 279.553 316.113,279.049 316.210,278.000 316.210 C 276.728 316.211,276.489 316.279,275.276 316.988 C 273.067 318.279,272.656 317.461,274.500 315.442 C 276.272 313.501,277.248 312.231,276.855 312.378 C 276.562 312.488,276.618 312.363,277.081 311.877 C 277.421 311.522,277.986 310.901,278.338 310.498 C 278.690 310.095,279.094 309.766,279.235 309.766 C 279.377 309.766,279.492 309.693,279.492 309.604 C 279.492 309.515,280.095 308.790,280.832 307.993 C 282.622 306.056,283.363 305.158,283.008 305.358 C 282.847 305.449,283.155 305.050,283.693 304.471 C 285.714 302.296,286.222 301.705,285.938 301.858 C 285.776 301.945,285.855 301.785,286.112 301.502 C 286.370 301.220,286.654 301.034,286.745 301.090 C 286.835 301.146,286.865 301.076,286.810 300.934 C 286.754 300.787,287.102 300.348,287.613 299.921 C 288.115 299.501,288.425 299.112,288.313 299.043 C 288.198 298.972,288.736 298.234,289.548 297.346 L 290.985 295.774 288.315 293.032 C 286.846 291.524,286.194 290.885,286.865 291.611 M235.828 294.189 L 235.254 294.824 235.889 294.251 C 236.480 293.716,236.613 293.555,236.462 293.555 C 236.429 293.555,236.143 293.840,235.828 294.189 M233.393 296.631 L 232.129 297.949 233.447 296.685 C 234.672 295.511,234.855 295.313,234.711 295.313 C 234.681 295.313,234.088 295.906,233.393 296.631 M295.117 298.535 C 295.482 298.911,295.824 299.219,295.877 299.219 C 295.931 299.219,295.677 298.911,295.313 298.535 C 294.948 298.159,294.606 297.852,294.552 297.852 C 294.499 297.852,294.753 298.159,295.117 298.535 M308.398 312.402 C 308.763 312.778,309.105 313.086,309.159 313.086 C 309.212 313.086,308.958 312.778,308.594 312.402 C 308.229 312.026,307.887 311.719,307.834 311.719 C 307.780 311.719,308.034 312.026,308.398 312.402 M252.628 316.846 L 251.855 317.676 252.686 316.904 C 253.458 316.186,253.605 316.016,253.458 316.016 C 253.426 316.016,253.052 316.389,252.628 316.846 M312.891 317.053 C 312.891 317.087,313.176 317.373,313.525 317.688 L 314.160 318.262 313.587 317.627 C 313.052 317.035,312.891 316.902,312.891 317.053 M250.380 318.896 L 249.707 319.629 250.439 318.956 C 251.121 318.329,251.262 318.164,251.113 318.164 C 251.080 318.164,250.750 318.494,250.380 318.896 M317.961 322.314 C 318.770 323.177,318.945 323.332,318.945 323.185 C 318.945 323.154,318.528 322.736,318.018 322.257 L 317.090 321.387 317.961 322.314 M244.380 323.048 C 243.897 323.342,243.395 323.438,242.329 323.439 C 241.172 323.439,240.777 323.526,240.137 323.921 C 239.482 324.324,239.104 324.403,237.810 324.408 C 236.351 324.414,234.856 324.927,234.375 325.589 C 234.094 325.975,233.271 326.172,231.943 326.172 C 230.704 326.172,230.336 326.251,229.699 326.653 C 228.992 327.099,228.711 327.141,225.891 327.222 C 223.249 327.297,222.754 327.363,222.154 327.717 C 221.732 327.966,221.124 328.125,220.594 328.125 C 220.086 328.125,219.727 328.215,219.727 328.343 C 219.727 328.467,219.900 328.516,220.128 328.456 C 220.384 328.389,220.502 328.434,220.454 328.580 C 220.412 328.706,220.214 328.840,220.014 328.879 C 219.814 328.918,219.294 329.163,218.858 329.425 L 218.066 329.900 218.831 329.208 L 219.596 328.516 218.707 328.516 C 217.710 328.516,217.100 328.743,215.820 329.591 C 214.888 330.209,215.225 330.155,209.416 330.617 C 208.418 330.697,207.540 330.862,207.463 330.984 C 206.961 331.789,204.900 332.617,203.385 332.623 C 202.108 332.628,201.727 332.709,201.074 333.111 C 200.336 333.565,200.132 333.592,197.397 333.593 L 194.502 333.594 193.187 334.375 C 191.984 335.089,191.753 335.156,190.487 335.156 C 189.370 335.156,188.938 335.250,188.252 335.642 C 187.550 336.044,187.140 336.129,185.893 336.130 C 184.732 336.132,184.237 336.223,183.745 336.523 C 183.262 336.817,182.760 336.913,181.692 336.913 C 180.465 336.914,180.154 336.991,179.327 337.500 C 178.594 337.951,178.144 338.086,177.374 338.086 C 176.455 338.086,176.300 338.157,175.457 338.965 C 174.555 339.829,174.518 339.844,173.221 339.844 C 172.379 339.844,171.808 339.938,171.641 340.106 C 171.154 340.593,170.537 340.820,169.705 340.820 L 168.877 340.820 169.336 340.332 C 169.897 339.735,169.523 339.672,168.634 340.214 C 168.203 340.477,167.557 340.603,166.382 340.653 C 164.836 340.718,164.652 340.774,163.410 341.553 C 162.162 342.336,162.004 342.383,160.639 342.383 C 159.253 342.383,159.122 342.424,157.538 343.359 L 155.885 344.336 152.991 344.337 C 150.259 344.338,150.054 344.365,149.316 344.819 C 148.658 345.225,148.286 345.301,146.950 345.306 C 145.699 345.311,145.266 345.390,144.897 345.681 C 144.639 345.884,143.948 346.332,143.361 346.678 L 142.295 347.308 139.604 347.234 C 138.125 347.193,136.914 347.219,136.914 347.292 C 136.914 347.365,137.090 347.378,137.305 347.322 C 137.520 347.266,137.695 347.310,137.695 347.420 C 137.695 347.530,137.861 347.576,138.064 347.523 C 138.267 347.470,138.486 347.514,138.552 347.621 C 138.618 347.728,138.848 347.769,139.063 347.713 C 139.290 347.653,139.453 347.707,139.453 347.840 C 139.453 347.967,139.532 348.021,139.629 347.961 C 139.793 347.860,142.510 348.327,143.164 348.569 C 143.325 348.629,143.809 348.712,144.238 348.754 C 144.668 348.796,145.151 348.884,145.313 348.950 C 145.474 349.016,145.825 349.096,146.094 349.127 C 146.362 349.158,146.890 349.235,147.266 349.297 C 147.642 349.359,148.257 349.451,148.633 349.501 C 149.009 349.550,149.668 349.642,150.098 349.705 C 151.120 349.855,153.039 350.068,155.371 350.291 C 157.242 350.470,157.987 350.518,161.816 350.711 C 190.793 352.173,218.498 343.628,241.867 326.021 C 243.355 324.899,244.723 323.832,244.906 323.649 C 245.089 323.466,245.451 323.168,245.710 322.986 L 246.181 322.656 245.600 322.657 C 245.281 322.657,244.732 322.833,244.380 323.048 M94.043 324.609 C 94.789 325.361,95.444 325.977,95.497 325.977 C 95.551 325.977,94.984 325.361,94.238 324.609 C 93.492 323.857,92.838 323.242,92.784 323.242 C 92.730 323.242,93.297 323.857,94.043 324.609 M321.680 326.233 C 321.680 326.267,321.965 326.552,322.314 326.868 L 322.949 327.441 322.376 326.807 C 321.841 326.215,321.680 326.082,321.680 326.233 M295.813 340.479 L 296.387 341.113 295.752 340.540 C 295.160 340.005,295.027 339.844,295.178 339.844 C 295.212 339.844,295.498 340.129,295.813 340.479 " stroke="none" fill="#af238f" fill-rule="evenodd"></path><path id="path7" d="M109.518 96.191 C 106.592 108.018,106.879 121.959,110.278 133.203 C 113.260 143.067,118.228 152.051,126.832 163.138 C 127.893 164.506,128.790 165.625,128.826 165.625 C 128.862 165.625,127.937 164.197,126.770 162.451 C 113.803 143.043,108.473 117.613,112.886 96.210 C 113.105 95.145,113.240 94.230,113.185 94.175 C 113.131 94.120,113.086 94.222,113.086 94.401 C 113.086 94.900,110.216 94.885,110.117 94.385 C 110.080 94.197,109.810 95.010,109.518 96.191 M141.309 180.078 C 141.728 180.508,142.115 180.859,142.169 180.859 C 142.223 180.859,141.923 180.508,141.504 180.078 C 141.084 179.648,140.697 179.297,140.643 179.297 C 140.590 179.297,140.889 179.648,141.309 180.078 M305.531 186.914 C 305.531 187.612,305.567 187.898,305.610 187.549 C 305.653 187.200,305.653 186.628,305.610 186.279 C 305.567 185.930,305.531 186.216,305.531 186.914 M275.635 189.160 C 275.637 189.590,275.677 189.743,275.724 189.500 C 275.771 189.257,275.769 188.905,275.720 188.718 C 275.671 188.532,275.633 188.730,275.635 189.160 M128.906 190.646 C 126.562 192.210,124.927 193.439,126.465 192.480 C 129.304 190.710,132.012 188.811,131.603 188.877 C 131.570 188.882,130.356 189.678,128.906 190.646 M305.404 188.997 C 305.332 189.069,305.284 189.574,305.298 190.120 L 305.322 191.113 305.478 190.040 C 305.638 188.933,305.627 188.774,305.404 188.997 M275.523 191.797 C 275.439 192.603,275.151 195.503,274.882 198.242 C 273.697 210.341,271.753 222.029,269.428 231.039 C 269.056 232.481,268.785 233.694,268.825 233.734 C 268.865 233.774,268.955 233.583,269.023 233.310 L 269.148 232.813 277.201 232.812 C 285.187 232.811,285.260 232.807,285.938 232.377 C 286.804 231.827,288.658 231.640,294.463 231.521 L 298.790 231.431 298.629 232.146 C 298.540 232.539,298.539 232.784,298.626 232.690 C 299.881 231.340,304.393 204.462,305.179 193.652 C 305.242 192.793,305.342 191.892,305.402 191.650 C 305.466 191.393,305.421 191.211,305.295 191.211 C 305.176 191.211,305.078 191.343,305.078 191.504 C 305.078 191.762,303.322 191.797,290.441 191.797 L 275.805 191.797 275.741 191.064 C 275.694 190.527,275.636 190.723,275.523 191.797 M127.065 192.313 C 126.647 192.597,126.121 192.839,125.897 192.850 C 125.672 192.862,125.488 192.974,125.488 193.099 C 125.488 193.224,125.408 193.400,125.310 193.490 C 125.207 193.584,125.192 193.550,125.273 193.408 C 125.483 193.044,125.089 193.113,124.780 193.495 C 124.551 193.776,124.552 193.800,124.786 193.660 C 124.974 193.547,125.016 193.567,124.919 193.723 C 124.841 193.849,124.698 193.903,124.601 193.843 C 124.342 193.683,123.419 194.343,123.567 194.583 C 123.642 194.704,123.599 194.728,123.461 194.643 C 123.221 194.495,120.371 196.494,115.723 200.072 C 109.214 205.082,105.476 208.363,99.691 214.146 C 94.832 219.004,93.777 220.172,90.420 224.414 C 86.209 229.734,80.013 240.048,80.013 241.736 C 80.013 241.877,79.935 241.992,79.839 241.992 C 79.743 241.992,79.715 242.074,79.777 242.174 C 79.839 242.274,79.798 242.412,79.688 242.480 C 79.577 242.549,79.536 242.687,79.598 242.787 C 79.660 242.887,79.612 242.969,79.492 242.969 C 79.372 242.969,79.328 243.057,79.395 243.164 C 79.461 243.271,79.413 243.359,79.288 243.359 C 79.162 243.359,79.110 243.491,79.172 243.652 C 79.234 243.813,79.194 243.945,79.084 243.945 C 78.974 243.945,78.938 244.033,79.004 244.141 C 79.070 244.248,79.034 244.336,78.924 244.336 C 78.814 244.336,78.774 244.468,78.836 244.629 C 78.897 244.790,78.854 244.922,78.738 244.922 C 78.622 244.922,78.584 245.068,78.653 245.247 C 78.743 245.483,78.706 245.528,78.519 245.412 C 78.347 245.306,78.307 245.328,78.399 245.478 C 78.581 245.772,90.346 245.801,90.527 245.508 C 90.594 245.400,91.143 245.313,91.747 245.313 C 92.597 245.313,92.945 245.219,93.286 244.899 C 93.695 244.515,93.996 244.479,97.595 244.390 C 101.316 244.297,101.499 244.274,102.344 243.787 C 103.298 243.237,104.567 242.950,106.250 242.902 L 107.324 242.871 108.984 240.429 C 117.981 227.195,128.976 217.789,142.786 211.511 C 145.952 210.071,150.538 208.346,150.787 208.500 C 150.891 208.564,150.977 208.524,150.977 208.410 C 150.977 208.296,151.058 208.203,151.158 208.203 C 151.432 208.203,153.711 206.591,153.711 206.397 C 153.711 206.303,153.812 206.290,153.936 206.366 C 154.076 206.453,154.109 206.420,154.023 206.280 C 153.946 206.156,153.804 206.055,153.708 206.055 C 153.612 206.055,153.314 205.835,153.045 205.566 C 152.777 205.298,152.421 205.078,152.255 205.078 C 152.089 205.078,151.953 204.991,151.953 204.886 C 151.953 204.780,151.580 204.451,151.123 204.155 C 150.667 203.859,150.249 203.564,150.195 203.499 C 150.031 203.301,148.059 201.953,147.934 201.953 C 147.869 201.953,147.353 201.558,146.787 201.074 C 146.222 200.591,145.675 200.195,145.572 200.195 C 145.470 200.195,145.133 199.932,144.824 199.609 C 144.515 199.287,144.164 199.023,144.043 199.023 C 143.922 199.023,143.570 198.760,143.262 198.438 C 142.953 198.115,142.575 197.852,142.421 197.852 C 142.267 197.852,141.841 197.588,141.474 197.266 C 141.107 196.943,140.678 196.680,140.521 196.680 C 140.363 196.680,140.234 196.548,140.234 196.387 C 140.234 196.226,140.092 196.094,139.917 196.094 C 139.644 196.094,139.637 196.140,139.869 196.436 C 140.117 196.752,140.108 196.756,139.747 196.484 C 139.533 196.323,139.197 195.993,138.999 195.750 C 138.802 195.507,138.546 195.367,138.431 195.438 C 138.314 195.510,138.277 195.477,138.347 195.365 C 138.416 195.253,138.341 195.053,138.181 194.920 C 137.950 194.728,137.891 194.729,137.891 194.922 C 137.891 195.115,137.831 195.115,137.600 194.924 C 137.440 194.791,137.357 194.604,137.416 194.509 C 137.475 194.414,137.391 194.336,137.230 194.336 C 137.069 194.336,136.532 193.984,136.035 193.555 C 135.539 193.125,135.021 192.773,134.885 192.773 C 134.750 192.773,134.432 192.554,134.180 192.285 C 133.453 191.511,128.215 191.532,127.065 192.313 M163.965 204.111 C 165.254 205.449,167.672 207.950,169.339 209.668 C 171.006 211.387,173.465 213.936,174.805 215.332 C 178.064 218.731,189.427 230.439,192.964 234.043 C 194.761 235.874,195.908 236.900,196.094 236.843 C 196.255 236.793,196.650 236.658,196.973 236.542 C 197.301 236.425,199.945 236.279,202.976 236.210 C 206.336 236.135,208.350 236.018,208.279 235.902 C 208.215 235.799,208.042 235.762,207.893 235.819 C 207.744 235.877,207.643 235.828,207.668 235.711 C 207.694 235.594,207.593 235.454,207.444 235.399 C 207.262 235.333,207.223 235.383,207.327 235.552 C 207.430 235.717,207.405 235.755,207.254 235.661 C 207.128 235.583,207.070 235.447,207.125 235.358 C 207.222 235.201,205.566 233.930,199.316 229.360 C 196.475 227.283,189.859 222.423,171.191 208.703 C 166.250 205.071,162.075 202.004,161.914 201.889 C 161.753 201.773,162.676 202.773,163.965 204.111 " stroke="none" fill="#f8615d" fill-rule="evenodd"></path><path id="path8" d="M211.328 253.381 C 211.328 253.415,211.614 253.701,211.963 254.016 L 212.598 254.590 212.024 253.955 C 211.489 253.363,211.328 253.231,211.328 253.381 M222.461 264.941 C 222.825 265.317,223.167 265.625,223.221 265.625 C 223.275 265.625,223.021 265.317,222.656 264.941 C 222.292 264.565,221.950 264.258,221.896 264.258 C 221.842 264.258,222.097 264.565,222.461 264.941 M73.483 268.750 C 73.483 269.126,73.523 269.280,73.572 269.092 C 73.621 268.904,73.621 268.596,73.572 268.408 C 73.523 268.220,73.483 268.374,73.483 268.750 M234.473 277.344 C 234.892 277.773,235.279 278.125,235.333 278.125 C 235.387 278.125,235.088 277.773,234.668 277.344 C 234.248 276.914,233.861 276.563,233.807 276.563 C 233.754 276.563,234.053 276.914,234.473 277.344 M73.493 277.832 C 73.495 278.369,73.533 278.566,73.578 278.269 C 73.623 277.972,73.621 277.532,73.575 277.292 C 73.529 277.052,73.492 277.295,73.493 277.832 M239.160 282.227 C 239.798 282.871,240.364 283.398,240.417 283.398 C 240.471 283.398,239.993 282.871,239.355 282.227 C 238.718 281.582,238.152 281.055,238.098 281.055 C 238.044 281.055,238.522 281.582,239.160 282.227 M273.438 286.714 C 272.655 287.238,272.398 287.303,271.094 287.305 C 269.976 287.306,269.478 287.398,268.989 287.696 C 268.304 288.114,264.982 288.306,265.625 287.891 C 265.821 287.764,264.939 287.700,262.951 287.698 C 261.180 287.697,259.935 287.774,259.863 287.891 C 259.785 288.017,260.618 288.086,262.219 288.086 C 264.362 288.086,264.665 288.124,264.461 288.370 C 264.281 288.586,263.523 288.676,261.263 288.751 C 256.555 288.906,254.898 289.100,253.951 289.606 C 253.177 290.019,252.893 290.050,250.050 290.028 C 247.865 290.012,246.962 290.071,246.908 290.234 C 246.866 290.359,246.426 290.636,245.929 290.849 C 245.433 291.062,244.967 291.334,244.892 291.454 C 244.763 291.664,241.241 291.697,241.035 291.491 C 240.986 291.442,241.166 291.161,241.435 290.867 C 241.703 290.573,242.209 289.937,242.558 289.453 L 243.193 288.574 242.544 289.339 C 242.187 289.760,240.785 291.430,239.429 293.050 C 223.330 312.287,195.952 329.223,175.306 332.715 C 154.958 336.157,128.728 329.060,114.374 316.230 C 114.062 315.951,113.869 315.833,113.946 315.967 C 114.054 316.156,113.564 316.211,111.757 316.211 C 109.794 316.211,109.354 316.267,108.962 316.570 C 107.533 317.673,106.739 317.969,105.204 317.969 C 103.927 317.969,103.584 318.044,102.904 318.473 C 101.200 319.549,100.515 319.727,98.072 319.727 L 95.786 319.727 94.824 320.703 C 93.282 322.269,92.266 322.174,90.611 320.313 C 89.943 319.561,89.314 318.945,89.214 318.945 C 89.114 318.945,89.301 319.171,89.629 319.447 C 89.957 319.723,90.205 320.017,90.181 320.099 C 90.157 320.182,90.420 320.490,90.767 320.783 C 91.114 321.076,91.377 321.386,91.353 321.471 C 91.278 321.733,96.459 326.875,98.730 328.794 C 108.299 336.875,120.029 342.777,134.027 346.553 C 136.175 347.132,136.734 347.205,139.372 347.247 L 142.319 347.293 143.374 346.671 C 143.954 346.329,144.639 345.884,144.897 345.681 C 145.266 345.390,145.699 345.311,146.950 345.306 C 148.286 345.301,148.658 345.225,149.316 344.819 C 150.054 344.365,150.259 344.338,152.991 344.337 L 155.885 344.336 157.538 343.359 C 159.122 342.424,159.253 342.383,160.639 342.383 C 162.004 342.383,162.162 342.336,163.410 341.553 C 164.652 340.774,164.836 340.718,166.382 340.653 C 167.557 340.603,168.203 340.477,168.634 340.214 C 169.523 339.672,169.897 339.735,169.336 340.332 L 168.877 340.820 169.705 340.820 C 170.537 340.820,171.154 340.593,171.641 340.106 C 171.808 339.938,172.379 339.844,173.221 339.844 C 174.518 339.844,174.555 339.829,175.457 338.965 C 176.300 338.157,176.455 338.086,177.374 338.086 C 178.144 338.086,178.594 337.951,179.327 337.500 C 180.154 336.991,180.465 336.914,181.692 336.913 C 182.760 336.913,183.262 336.817,183.745 336.523 C 184.237 336.223,184.732 336.132,185.893 336.130 C 187.140 336.129,187.550 336.044,188.252 335.642 C 188.938 335.250,189.370 335.156,190.487 335.156 C 191.753 335.156,191.984 335.089,193.187 334.375 L 194.502 333.594 197.397 333.593 C 200.132 333.592,200.336 333.565,201.074 333.111 C 201.727 332.709,202.108 332.628,203.385 332.623 C 204.900 332.617,206.961 331.789,207.463 330.984 C 207.540 330.862,208.439 330.696,209.465 330.615 C 215.127 330.170,214.890 330.208,215.820 329.591 C 217.100 328.743,217.710 328.516,218.707 328.516 L 219.596 328.516 218.831 329.208 L 218.066 329.900 218.858 329.425 C 219.294 329.163,219.814 328.918,220.014 328.879 C 220.214 328.840,220.412 328.706,220.454 328.580 C 220.502 328.434,220.384 328.389,220.128 328.456 C 219.900 328.516,219.727 328.467,219.727 328.343 C 219.727 328.215,220.086 328.125,220.594 328.125 C 221.124 328.125,221.732 327.966,222.154 327.717 C 222.754 327.363,223.249 327.297,225.891 327.222 C 228.711 327.141,228.992 327.099,229.699 326.653 C 230.336 326.251,230.704 326.172,231.943 326.172 C 233.271 326.172,234.094 325.975,234.375 325.589 C 234.856 324.927,236.351 324.414,237.810 324.408 C 239.104 324.403,239.482 324.324,240.137 323.921 C 240.777 323.526,241.172 323.439,242.329 323.439 C 243.395 323.438,243.897 323.342,244.380 323.048 C 244.732 322.833,245.299 322.657,245.641 322.657 C 246.107 322.656,246.366 322.511,246.677 322.074 C 246.905 321.754,247.165 321.512,247.255 321.537 C 247.420 321.583,249.067 320.121,253.511 315.985 C 258.640 311.211,261.517 307.912,265.413 302.335 C 267.174 299.815,269.194 296.929,269.902 295.921 C 270.611 294.913,271.191 294.016,271.191 293.928 C 271.191 293.839,271.367 293.625,271.582 293.451 C 271.797 293.277,271.841 293.192,271.680 293.262 C 271.519 293.331,271.563 293.244,271.777 293.067 C 271.992 292.890,272.145 292.662,272.117 292.559 C 272.089 292.456,272.199 292.321,272.360 292.259 C 272.522 292.197,272.608 292.072,272.552 291.982 C 272.496 291.891,272.631 291.720,272.852 291.602 C 273.072 291.483,273.201 291.303,273.138 291.200 C 273.074 291.097,273.159 290.960,273.326 290.896 C 273.494 290.832,273.585 290.706,273.530 290.617 C 273.475 290.527,273.585 290.363,273.775 290.252 C 273.965 290.142,274.033 290.046,273.926 290.041 C 273.818 290.035,273.950 289.849,274.219 289.627 C 274.487 289.405,274.580 289.291,274.424 289.374 C 274.260 289.461,274.327 289.263,274.584 288.902 C 274.828 288.561,275.098 288.281,275.186 288.281 C 275.393 288.281,276.042 287.292,276.042 286.978 C 276.042 286.845,276.097 286.770,276.165 286.812 C 276.233 286.854,276.387 286.732,276.506 286.541 C 276.934 285.855,274.515 285.991,273.438 286.714 M285.458 289.440 C 285.396 289.540,285.436 289.678,285.547 289.746 C 285.658 289.815,285.686 289.975,285.610 290.101 C 285.531 290.233,285.614 290.217,285.802 290.064 C 285.984 289.917,286.133 289.675,286.133 289.527 C 286.133 289.224,285.631 289.160,285.458 289.440 M289.486 297.410 C 288.722 298.252,288.204 298.975,288.315 299.044 C 288.425 299.112,288.109 299.507,287.613 299.921 C 287.102 300.348,286.754 300.787,286.810 300.934 C 286.865 301.076,286.835 301.146,286.745 301.090 C 286.654 301.034,286.370 301.220,286.112 301.502 C 285.855 301.785,285.776 301.945,285.938 301.858 C 286.222 301.705,285.714 302.296,283.693 304.471 C 283.155 305.050,282.847 305.449,283.008 305.358 C 283.363 305.158,282.622 306.056,280.832 307.993 C 280.095 308.790,279.492 309.515,279.492 309.604 C 279.492 309.693,279.377 309.766,279.235 309.766 C 279.094 309.766,278.690 310.095,278.338 310.498 C 277.986 310.901,277.421 311.522,277.081 311.877 C 276.618 312.363,276.562 312.488,276.855 312.378 C 277.248 312.231,276.272 313.501,274.500 315.442 C 272.656 317.461,273.067 318.279,275.276 316.988 C 276.489 316.279,276.728 316.211,278.000 316.210 C 279.049 316.210,279.553 316.113,280.034 315.820 C 280.527 315.519,281.019 315.429,282.182 315.429 C 283.443 315.428,283.820 315.349,284.473 314.947 C 285.114 314.552,285.517 314.463,286.719 314.453 C 287.920 314.443,288.324 314.354,288.965 313.960 C 289.620 313.556,289.997 313.477,291.309 313.471 C 292.620 313.466,292.997 313.387,293.652 312.983 C 294.390 312.529,294.598 312.502,297.363 312.495 C 300.129 312.488,300.337 312.461,301.074 312.007 C 301.730 311.603,302.107 311.524,303.418 311.518 C 304.489 311.513,305.101 311.420,305.365 311.221 C 305.725 310.948,305.892 311.071,308.099 313.228 C 309.392 314.492,308.961 314.015,307.142 312.168 C 305.323 310.322,303.760 308.856,303.670 308.912 C 303.580 308.968,303.530 308.928,303.560 308.823 C 303.618 308.618,291.269 295.898,291.011 295.898 C 290.926 295.898,290.239 296.578,289.486 297.410 M293.359 296.741 C 293.359 296.774,293.645 297.060,293.994 297.376 L 294.629 297.949 294.055 297.314 C 293.521 296.723,293.359 296.590,293.359 296.741 M298.047 301.624 C 298.047 301.657,298.333 301.943,298.682 302.258 L 299.316 302.832 298.743 302.197 C 298.208 301.606,298.047 301.473,298.047 301.624 M302.930 306.702 C 302.930 306.735,303.215 307.021,303.564 307.337 L 304.199 307.910 303.626 307.275 C 303.091 306.684,302.930 306.551,302.930 306.702 M305.188 310.381 L 305.762 310.997 305.127 310.540 C 304.778 310.288,304.492 310.011,304.492 309.924 C 304.492 309.671,304.580 309.729,305.188 310.381 M306.641 310.608 C 306.641 310.642,306.926 310.927,307.275 311.243 L 307.910 311.816 307.337 311.182 C 306.802 310.590,306.641 310.457,306.641 310.608 M312.109 316.309 C 312.474 316.685,312.816 316.992,312.870 316.992 C 312.923 316.992,312.669 316.685,312.305 316.309 C 311.940 315.933,311.598 315.625,311.544 315.625 C 311.491 315.625,311.745 315.933,312.109 316.309 M315.234 319.592 C 315.234 319.626,315.520 319.912,315.869 320.227 L 316.504 320.801 315.930 320.166 C 315.396 319.574,315.234 319.441,315.234 319.592 M315.820 321.191 C 316.512 321.890,317.123 322.461,317.176 322.461 C 317.230 322.461,316.708 321.890,316.016 321.191 C 315.324 320.493,314.713 319.922,314.660 319.922 C 314.606 319.922,315.128 320.493,315.820 321.191 M165.283 322.986 C 165.471 323.035,165.779 323.035,165.967 322.986 C 166.155 322.937,166.001 322.897,165.625 322.897 C 165.249 322.897,165.095 322.937,165.283 322.986 M320.801 325.391 C 321.220 325.820,321.608 326.172,321.661 326.172 C 321.715 326.172,321.416 325.820,320.996 325.391 C 320.577 324.961,320.189 324.609,320.136 324.609 C 320.082 324.609,320.381 324.961,320.801 325.391 M326.430 336.914 C 326.430 337.612,326.465 337.898,326.508 337.549 C 326.552 337.200,326.552 336.628,326.508 336.279 C 326.465 335.930,326.430 336.216,326.430 336.914 M161.182 350.721 C 161.370 350.770,161.677 350.770,161.865 350.721 C 162.053 350.671,161.899 350.631,161.523 350.631 C 161.147 350.631,160.994 350.671,161.182 350.721 " stroke="none" fill="#bc2493" fill-rule="evenodd"></path></g></svg>